G04 Created with the python gerber_writer 0.4.2.11*
G04 #@! TF.CreationDate,2024-03-25T21:44:32.809483*
G04 #@! TF.FileFunction,Other,random_test*
G04 #@! TF.FilePolarity,Positive*
%MOMM*%
%FSLAX46Y46*%
G75*
G04 #@! TAShape,Circle,0.015*
%ADD10C,0.015*%
G04 #@! TAShape,Circle,0.01*
%ADD11C,0.01*%
%LPD*%
D10*
X-877613412Y931305150D03*
X449011882Y-876305944D03*
X985427748Y-318711729D03*
X82040556Y-19273360D03*
X784241923Y-547920031D03*
X-68310769Y321782716D03*
X-879865294Y-426058049D03*
X-167186492Y-620457516D03*
X724462387Y-988603672D03*
X341458379Y433974895D03*
X219244705Y-132742520D03*
X706890643Y384562333D03*
X-674734908Y-345070523D03*
X-43416950Y-649112380D03*
X-671187099Y-265470011D03*
X285558431Y7105172D03*
X-204267819Y826303562D03*
X-57933794Y892300996D03*
X328821534Y-860914317D03*
X-991519610Y-810449617D03*
X-292691365Y242482963D03*
X-345421572Y543719810D03*
X-370617199Y907607958D03*
X114241294Y-611479003D03*
X-397598667Y-583182485D03*
X-78339927Y-453180088D03*
X296246354Y64840747D03*
X586679673Y359971860D03*
X-781121521Y397123350D03*
X719303027Y923247053D03*
X-900373614Y756156137D03*
X199932314Y37702225D03*
X736723119Y-741260070D03*
X-41535271Y380374615D03*
X395699813Y501704903D03*
X716229116Y672779067D03*
X498966802Y-672993614D03*
X417929382Y-34037430D03*
X761068101Y-666084956D03*
X572024623Y439253221D03*
X-251325715Y-350759858D03*
X812677316Y662208806D03*
X97725893Y690836773D03*
X-100801571Y-51831607D03*
X77695366Y-916726895D03*
X-713192040Y-464904120D03*
X-100225937Y-22919218D03*
X-137420139Y-484946465D03*
X309709965Y-427448569D03*
X432737127Y-943667181D03*
X588063984Y-988306668D03*
X683605063Y572196649D03*
X-257077559Y598252182D03*
X569034165Y53859171D03*
X946490679Y-778208926D03*
X-44004464Y483867846D03*
X-638500979Y304035995D03*
X-365450006Y-157274252D03*
X-193579590Y-424950859D03*
X477037378Y-895962441D03*
X617572148Y320883592D03*
X-445543729Y-797183488D03*
X988082841Y218541012D03*
X-194236543Y-44982930D03*
X-363332711Y-794358486D03*
X-207847129Y567822832D03*
X-426852051Y117133490D03*
X109220008Y-827820536D03*
X111268133Y766449300D03*
X642942244Y836645257D03*
X-162651133Y609236771D03*
X648716510Y-699287530D03*
X932235245Y-214994118D03*
X166231188Y207761568D03*
X-883219374Y658950123D03*
X-822877702Y280267632D03*
X-741350305Y-667751900D03*
X-945120829Y188125185D03*
X35391565Y-828007412D03*
X728105231Y-642179207D03*
X108115316Y-655495304D03*
X-141709824Y-797054252D03*
X840518684Y-211317426D03*
X-490751575Y711889403D03*
X-387563744Y-908025025D03*
X750706530Y780361692D03*
X663399088Y-344620753D03*
X-723138728Y-4345450D03*
X294743621Y896980116D03*
X-746708558Y430551947D03*
X-639900634Y737649759D03*
X223318503Y-514496089D03*
X-800221185Y617715958D03*
X952256959Y437770523D03*
X75592586Y300881031D03*
X-518480261Y766622295D03*
X141412552Y-391700835D03*
X-390838211Y759909572D03*
X960431366Y-762660761D03*
X-330986061Y-514219951D03*
X-234094594Y867459850D03*
X-744103085Y-819904805D03*
X566230284Y753972904D03*
X-990100259Y-21382718D03*
X703333538Y756299723D03*
X-411119584Y105890778D03*
X-875391449Y785240938D03*
X872140047Y-627630392D03*
X-609270425Y548475936D03*
X-685564581Y130559450D03*
X159006542Y664430659D03*
X-805240458Y-541625098D03*
X-140396940Y615287443D03*
X478432296Y860710952D03*
X485211810Y147503465D03*
X30912635Y918888635D03*
X117881430Y884105522D03*
X-91120195Y323898230D03*
X368931219Y594513603D03*
X-996618975Y-273700216D03*
X793542083Y-373131074D03*
X-547063674Y343208626D03*
X994159Y-210611875D03*
X-767621776Y-41826982D03*
X238268553Y-561284739D03*
X-269742214Y-586226157D03*
X-989383188Y433550325D03*
X889539957Y-414710118D03*
X-309563278Y-790185210D03*
X-587949240Y792214064D03*
X-630732154Y-491552446D03*
X-36510079Y-274162550D03*
X-403012698Y716003896D03*
X-250551679Y-878230660D03*
X830562667Y-794207749D03*
X-526973248Y-945425208D03*
X353989036Y641985684D03*
X-812102431Y-580784981D03*
X271580714Y654953288D03*
X-673417975Y-501736420D03*
X-897180819Y-652382495D03*
X-113050559Y-423008708D03*
X-63409147Y-332848885D03*
X954459786Y-828621190D03*
X607324305Y-59259267D03*
X510472289Y319774311D03*
X833330871Y-368466324D03*
X-212498609Y844747200D03*
X-917547766Y362571450D03*
X988239648Y506859082D03*
X-377762171Y-461520574D03*
X758055600Y-547411383D03*
X-38367451Y354897843D03*
X-472510751Y88690481D03*
X-49404554Y-104199355D03*
X-303677050Y-185946495D03*
X871781830Y401068329D03*
X-911454114Y169245606D03*
X110294183Y967615656D03*
X-595983691Y-429529319D03*
X-44358948Y-236643314D03*
X-517305614Y-219912230D03*
X-429504410Y734997658D03*
X-9748305Y917593888D03*
X164238009Y-804697198D03*
X-647770868Y-11762496D03*
X570221765Y-575805347D03*
X-492221177Y-275200765D03*
X-914067093Y88020064D03*
X327006949Y224506116D03*
X-271065737Y801651399D03*
X-30210771Y-293224579D03*
X-145689381Y-752136130D03*
X859520344Y196062504D03*
X349890156Y-759116456D03*
X435881702Y852575672D03*
X-238568935Y633722427D03*
X-545275142Y-646588104D03*
X180263477Y-714628606D03*
X-274158109Y-688200192D03*
X336865647Y336613999D03*
X114654622Y-203685167D03*
X343578354Y1961497D03*
X-277316167Y161050821D03*
X-955915145Y-838931605D03*
X602638871Y-475127351D03*
X545936056Y657114230D03*
X899157386Y679333978D03*
X-498138421Y721209468D03*
X502149168Y571930027D03*
X-85458523Y537084492D03*
X899278640Y91286743D03*
X934976176Y758913301D03*
X63979142Y624997403D03*
X-296167393Y135486628D03*
X-965290669Y448001410D03*
X-325786505Y795578551D03*
X151580366Y-919186905D03*
X264107409Y-767355180D03*
X-75955773Y972901805D03*
X408658439Y81402293D03*
X-188207907Y-95332729D03*
X-546168969Y-415895693D03*
X-951596357Y-926626886D03*
X112359754Y-824721896D03*
X851193661Y362996039D03*
X-925227592Y343349354D03*
X-611567937Y-285712209D03*
X-482999342Y127329124D03*
X-577755183Y18861765D03*
X711265905Y621439718D03*
X-248863405Y989768707D03*
X659902039Y128652150D03*
X-816741163Y-23711010D03*
X-736271060Y70453889D03*
X293522461Y-59172791D03*
X851594846Y-600715679D03*
X-758691986Y456113617D03*
X566905446Y683809188D03*
X-17941741Y-536842244D03*
X-16930104Y-45867462D03*
X-384749896Y929193063D03*
X264275263Y845273686D03*
X-984667080Y-875758467D03*
X941325078Y-793046899D03*
X871164977Y562933766D03*
X-673206879Y697256475D03*
X-244163517Y-675733212D03*
X-32959862Y-507016310D03*
X305398775Y-621863121D03*
X692961657Y928183142D03*
X-45723610Y-774951698D03*
X-977257772Y589545347D03*
X-316405896Y-127747247D03*
X-622253142Y452542644D03*
X536052897Y-27378260D03*
X993112668Y635685514D03*
X891533642Y244581519D03*
X532997701Y34484359D03*
X-508367457Y582931693D03*
X28806477Y-420097687D03*
X572980173Y-264421353D03*
X-638794385Y-54793570D03*
X77293448Y-467870904D03*
X-493175365Y-175924022D03*
X548930184Y-990175681D03*
X503155864Y-436560544D03*
X-38211296Y-564671015D03*
X-897880698Y116406747D03*
X-688312125Y614338363D03*
X31338615Y36171171D03*
X-192680266Y-10722738D03*
X906624854Y734336284D03*
X-736773543Y755623512D03*
X197288154Y-206380968D03*
X-899090592Y72241140D03*
X-936683993Y262535495D03*
X243466844Y-618022450D03*
X111104654Y-35273654D03*
X640360050Y-90471536D03*
X447353053Y-265090262D03*
X920395740Y38619648D03*
X-659447203Y80974068D03*
X-183882102Y-395367194D03*
X-599843123Y-676096921D03*
X-552493663Y675734216D03*
X-151028133Y719404577D03*
X608125327Y-358197146D03*
X-927657624Y135407836D03*
X-56651060Y-484750675D03*
X-842563931Y899981882D03*
X223480831Y473670635D03*
X-827485811Y215836597D03*
X-526537385Y-117061594D03*
X563191629Y-285519958D03*
X365138252Y-953565358D03*
X-369749206Y710097123D03*
X-845078806Y-937865976D03*
X-364333073Y-395870093D03*
X874599987Y859850230D03*
X374358180Y713573260D03*
X-613648107Y383418908D03*
X885690704Y188343250D03*
X-675092183Y351771936D03*
X998221328Y670654758D03*
X-338997828Y-510905440D03*
X-560375833Y-472010706D03*
X313964976Y185596691D03*
X-858509825Y177480517D03*
X-750471499Y610309483D03*
X-111280401Y369640398D03*
X-172036824Y-763597334D03*
X344873059Y559378658D03*
X288085964Y-481786841D03*
X-890579134Y758877620D03*
X819480131Y709597187D03*
X624003123Y-834008316D03*
X-177139291Y85948279D03*
X943604221Y923630559D03*
X-847057302Y-935968430D03*
X-508446797Y846099928D03*
X368293618Y778587834D03*
X556907796Y-671255691D03*
X-886494055Y399914624D03*
X903530716Y389164923D03*
X-843297356Y-369599532D03*
X-215462749Y-733363677D03*
X-235275254Y-945657072D03*
X377492555Y-252110966D03*
X-868206104Y-61931401D03*
X-723032664Y-692563190D03*
X-182836390Y283298350D03*
X298131938Y-291744786D03*
X632570054Y945731810D03*
X-509635827Y221249875D03*
X-62244162Y-756434534D03*
X-179939139Y523461103D03*
X170950462Y-511563778D03*
X491946147Y773416640D03*
X-910784100Y139824631D03*
X916482389Y-409351466D03*
X367140883Y-917415661D03*
X-771081909Y-613013627D03*
X-787667209Y-638176791D03*
X840102224Y780215658D03*
X-288074247Y-63165044D03*
X-962157486Y-550079021D03*
X802097083Y-102929291D03*
X809726980Y-24749851D03*
X-868022338Y-636059786D03*
X-158116866Y8398316D03*
X-71674859Y-862132626D03*
X-836516698Y754233693D03*
X-308564865Y340801428D03*
X233128334Y434086938D03*
X-324685848Y-433269004D03*
X-326224077Y-895560786D03*
X403833054Y-889626644D03*
X-274863641Y-168878692D03*
X-486114798Y194272984D03*
X-143397738Y81217788D03*
X-993097036Y935263573D03*
X710940158Y870362918D03*
X81724830Y487956725D03*
X247326192Y-956030941D03*
X462703539Y-738322105D03*
X-910250665Y897549657D03*
X-675513942Y-881118321D03*
X-850364497Y-965676184D03*
X-466906534Y194396392D03*
X127330283Y-278063523D03*
X515806234Y374388415D03*
X871664681Y538225588D03*
X-602199494Y791426620D03*
X477336267Y-714305613D03*
X-570859836Y506873268D03*
X-974161176Y257057454D03*
X436049305Y-799964707D03*
X857507789Y-902078716D03*
X-899681857Y-953317721D03*
X361996053Y101951403D03*
X508433544Y585828093D03*
X818633270Y322764120D03*
X289789693Y734158561D03*
X-135208125Y693784026D03*
X-735782721Y662922555D03*
X-852092679Y-244768929D03*
X791430844Y-382944386D03*
X-658388122Y238335023D03*
X-971801659Y571767387D03*
X200264527Y325846260D03*
X852494484Y-522783893D03*
X-115613120Y-726884372D03*
X-688008464Y-353264550D03*
X-769581336Y-394412293D03*
X518821798Y-368943449D03*
X-589439820Y-374249511D03*
X290615525Y-616447788D03*
X737253297Y718961918D03*
X-486527065Y-968803223D03*
X-689575116Y-427245781D03*
X855551959Y832692353D03*
X-820391039Y677736602D03*
X256269477Y-458333278D03*
X-221674614Y-464508485D03*
X-89038168Y-671429665D03*
X334160244Y195186914D03*
X-910880295Y-581069738D03*
X225071346Y-659532340D03*
X796691503Y975146657D03*
X-75578519Y-924688037D03*
X-46339333Y-530099217D03*
X-430509949Y310324629D03*
X-564928260Y672110139D03*
X-916767829Y-334414849D03*
X-439668763Y129769697D03*
X464768230Y-492282867D03*
X-913305404Y-134473945D03*
X647066643Y-154633800D03*
X787765464Y248602197D03*
X743944749Y886687297D03*
X18186506Y-346512082D03*
X47492447Y-747667942D03*
X-624240994Y-503974723D03*
X398533490Y501812408D03*
X379386780Y-429635564D03*
X-432096941Y128784857D03*
X992778759Y330318400D03*
X-28658540Y463124008D03*
X-307174246Y718194153D03*
X7365047Y289188088D03*
X-731013752Y-322054764D03*
X-178030436Y-888948278D03*
X152406057Y705545126D03*
X590640518Y356641239D03*
X-353525282Y440024957D03*
X425708839Y-661907553D03*
X-492424138Y675231884D03*
X-223430378Y-134435010D03*
X-840390023Y139275730D03*
X83581799Y699438047D03*
X-665025563Y404806289D03*
X-46384482Y579111220D03*
X-708262947Y-861926376D03*
X-590875543Y188581130D03*
X214217025Y877448583D03*
X267531067Y360691783D03*
X-82905817Y-726624161D03*
X642560587Y238961817D03*
X668244893Y-681234337D03*
X-762077425Y-576106953D03*
X-551472217Y-257521835D03*
X680369442Y213767874D03*
X-969051320Y-271673529D03*
X168649953Y-766014559D03*
X-666843514Y684391210D03*
X-860818109Y-653041665D03*
X-609427473Y-664713966D03*
X-388121130Y25476902D03*
X121862740Y-909680685D03*
X-572140453Y682192867D03*
X-721458700Y-435353251D03*
X881919812Y399266837D03*
X894909597Y794439791D03*
X-125914923Y621239630D03*
X-898812669Y152849328D03*
X-646802476Y-622690457D03*
X-289298703Y409731269D03*
X-258396009Y787051712D03*
X-379016917Y134267405D03*
X281267532Y934962143D03*
X-266670430Y855391287D03*
X-445859516Y-891440116D03*
X193253152Y-395739953D03*
X146279923Y345915340D03*
X825516788Y-780142258D03*
X855144481Y-105999691D03*
X218835953Y-172220698D03*
X-662419398Y515377882D03*
X920934514Y165257783D03*
X-14199148Y-989916146D03*
X-95455012Y-227246989D03*
X-510901891Y46948312D03*
X333823059Y612532493D03*
X453067581Y-66087254D03*
X-818556830Y931426934D03*
X-343069121Y206581652D03*
X-586932374Y-809172794D03*
X-221483331Y-988164352D03*
X-295320003Y-68870698D03*
X-975692022Y124828039D03*
X-942876584Y388934817D03*
X-369705101Y-518200728D03*
X-240119069Y-161201642D03*
X-670713542Y4943613D03*
X403007833Y327546268D03*
X-141866734Y905440791D03*
X-381745219Y-376331479D03*
X847645623Y592796456D03*
X982557383Y-446784692D03*
X11841017Y265566685D03*
X-724217245Y824963870D03*
X826848116Y623905309D03*
X387620135Y139712411D03*
X-426164693Y-365506453D03*
X-17987404Y527577244D03*
X-39628235Y-401955900D03*
X405244567Y575427198D03*
X-250953440Y-916949032D03*
X-532187718Y768750756D03*
X-119732154Y-609570840D03*
X223527722Y21159065D03*
X-162450439Y195391124D03*
X-619134153Y-39173169D03*
X-984891682Y-998431181D03*
X183789041Y408018834D03*
X223388162Y69921726D03*
X-837139137Y-721253155D03*
X245919629Y-532553904D03*
X-279201639Y979601113D03*
X557016595Y467266762D03*
X-320792710Y983262298D03*
X429088212Y-538452384D03*
X-79743773Y878390784D03*
X664313296Y-60812466D03*
X17360941Y-653831210D03*
X30794392Y-989534388D03*
X-827605157Y-181351587D03*
X739148174Y-857778728D03*
X-792858014Y-935127432D03*
X664771738Y-78594624D03*
X430805325Y-61917280D03*
X-430705856Y-638146432D03*
X-478544213Y814713155D03*
X-731913427Y-104865962D03*
X-30548235Y-302408323D03*
X835569369Y683632742D03*
X-60417204Y-947132694D03*
X-776681892Y-863424791D03*
X-137373094Y850333834D03*
X950515912Y-908119447D03*
X108460899Y-494062796D03*
X512572526Y511175942D03*
X444892632Y-277128131D03*
X-40113123Y440325809D03*
X960323063Y204477702D03*
X-227535342Y113505701D03*
X40157157Y663950095D03*
X-52162177Y629502198D03*
X731529711Y-631702583D03*
X731456812Y959541871D03*
X500848932Y-910974144D03*
X540501023Y-406602437D03*
X976255383Y588879983D03*
X21705781Y422531336D03*
X-436290765Y966223019D03*
X-420464935Y-272852784D03*
X614839713Y-341492078D03*
X74396468Y72162885D03*
X155299201Y-838626705D03*
X-896513965Y-134321037D03*
X827642383Y-32816396D03*
X-485563544Y-459027646D03*
X-535665939Y-346352281D03*
X334557192Y-601652999D03*
X-729035710Y-621949074D03*
X-881485159Y181343821D03*
X464318656Y804995841D03*
X872012773Y178756965D03*
X710041395Y-265221360D03*
X948623120Y-519562157D03*
X689739604Y768609476D03*
X341524363Y-147817504D03*
X-846889749Y144472737D03*
X278683034Y683728713D03*
X-39943641Y-956673515D03*
X302245207Y-925031177D03*
X701333040Y275923816D03*
X-982617297Y-97137103D03*
X-247906490Y623632793D03*
X-543253914Y-733455902D03*
X-223110905Y-842107134D03*
X803224001Y-106534490D03*
X951555244Y-782021881D03*
X79687397Y-756356704D03*
X-562702304Y-907618390D03*
X263744688Y-570829137D03*
X1322016Y-183211104D03*
X844392128Y512295581D03*
X-34250163Y620785192D03*
X-203464734Y773035868D03*
X133706698Y-316666464D03*
X741585830Y-542785829D03*
X364232532Y-151378124D03*
X-477274378Y940763593D03*
X-994042956Y-70607434D03*
X-119400430Y600725657D03*
X-272224060Y-952218841D03*
X715669117Y-769077589D03*
X899101914Y-904901773D03*
X-545900961Y-858236457D03*
X910064933Y432059161D03*
X-182466473Y-166451942D03*
X649280154Y-870307930D03*
X184897935Y370413891D03*
X321710169Y813431860D03*
X-738620917Y683204774D03*
X385846959Y22144625D03*
X-200924928Y634471849D03*
X-322466086Y368899484D03*
X-644613492Y-940090306D03*
X-118424175Y677356550D03*
X-968134954Y-799045524D03*
X-633737502Y-644458063D03*
X935194820Y120119781D03*
X615509912Y-344920252D03*
X-653326443Y-430586796D03*
X654127725Y147315934D03*
X165875190Y-760397549D03*
X583934435Y641582406D03*
X356665899Y377517190D03*
X717922426Y-668320105D03*
X98237764Y-798028578D03*
X535488543Y655244466D03*
X487313914Y-275880821D03*
X369361635Y-313265401D03*
X-221532100Y2584437D03*
X-931937327Y-403358127D03*
X524317323Y-743270295D03*
X-785652041Y-523092940D03*
X-353640248Y750743806D03*
X716639360Y-247310365D03*
X163794849Y483106418D03*
X-683685180Y-731085249D03*
X-914204271Y-414000580D03*
X667503998Y830169417D03*
X-629510359Y-751120035D03*
X691219923Y-388451692D03*
X292776423Y821091734D03*
X-307178013Y-496757321D03*
X-886655740Y75327295D03*
X471228917Y786120264D03*
X986897229Y-653692847D03*
X834903314Y-55058551D03*
X-411810683Y-555104344D03*
X-969935761Y869532981D03*
X777579138Y972408501D03*
X451647365Y478421983D03*
X725952513Y-496747053D03*
X-449898814Y100935806D03*
X-428299553Y336130599D03*
X-376046663Y-206530311D03*
X148977824Y157553178D03*
X-896900899Y-223848234D03*
X-640049408Y257793611D03*
X574497599Y476452044D03*
X-493184850Y484167927D03*
X-872000266Y-161437698D03*
X156185121Y132019100D03*
X-696976257Y-593884782D03*
X-457602820Y-986294909D03*
X-798176091Y-263365819D03*
X826515492Y755288157D03*
X295425476Y209212793D03*
X340963638Y97975717D03*
X953096488Y-143988319D03*
X446718917Y103204574D03*
X-797571810Y-605157358D03*
X-94791230Y258866612D03*
X726717568Y997477196D03*
X-163683735Y116988430D03*
X709476677Y-286538686D03*
X-589469246Y340335198D03*
X561247604Y931119959D03*
X-384040410Y258165552D03*
X-238849600Y-912801040D03*
X961146993Y-972557272D03*
X-126494243Y-200825849D03*
X-578645378Y322659361D03*
X-206823769Y497513290D03*
X-615582466Y-47432046D03*
X309773521Y-703967536D03*
X-440219332Y-106812387D03*
X-693874749Y-100495714D03*
X293348457Y403571759D03*
X-250719113Y252830645D03*
X563828358Y143917457D03*
X861794529Y-578906953D03*
X-769201231Y-520843682D03*
X-521968856Y-823405997D03*
X-669305916Y857514200D03*
X-605644830Y-224291507D03*
X581508475Y-840437577D03*
X-639723927Y887374773D03*
X38230759Y350114618D03*
X-308252882Y701117422D03*
X402156260Y-839536808D03*
X-787975495Y-765680190D03*
X801043181Y569824698D03*
X390706167Y242234184D03*
X20883732Y-852106498D03*
X120417182Y-74853350D03*
X869664134Y226735550D03*
X-260692650Y-978045525D03*
X206981137Y-137117345D03*
X106759251Y460167499D03*
X705274164Y-975359981D03*
X532641392Y-331056403D03*
X561389582Y673566654D03*
X317273878Y280068032D03*
X718839552Y657980463D03*
X179635137Y585281494D03*
X-857495685Y-774578188D03*
X-993902885Y-319270250D03*
X910207869Y43420941D03*
X-511008117Y741916391D03*
X382856718Y-341599160D03*
X-256293118Y923593750D03*
X338914013Y385508509D03*
X839887114Y-257587936D03*
X708713354Y-205180621D03*
X-325775437Y-798605594D03*
X-784797445Y625180066D03*
X81251540Y159597590D03*
X-820375251Y356407262D03*
X-882421315Y239633347D03*
X-779677371Y374317643D03*
X-89984061Y-307765925D03*
X-813787859Y-492207112D03*
X-583938583Y-611830196D03*
X397708337Y777584937D03*
X322734882Y203247357D03*
X-951990920Y-178852332D03*
X-721130935Y-889607881D03*
X-22893631Y-585771592D03*
X286831282Y770477616D03*
X-142069037Y758683872D03*
X-93780382Y-265261278D03*
X661012863Y898694055D03*
X640166124Y-752450987D03*
X228310211Y-27704930D03*
X-114016880Y722711229D03*
X788364773Y607228531D03*
X408151576Y-913529912D03*
X806546965Y906730732D03*
X797473439Y-750754689D03*
X-878561849Y-739963124D03*
X464853816Y-422602624D03*
X-202075108Y-405891550D03*
X-948411982Y702947993D03*
X-787707267Y-767934371D03*
X526984365Y15277079D03*
X678187832Y922036256D03*
X33694662Y-183798837D03*
X-969064505Y25066369D03*
X-353853347Y-38985435D03*
X500082883Y764146890D03*
X85263703Y269833925D03*
X430418850Y-764116052D03*
X140897745Y-619916030D03*
X261007858Y-314507591D03*
X-585255696Y979614909D03*
X834201816Y-229601873D03*
X-405771610Y120187139D03*
X926471793Y-303131296D03*
X506749640Y658957553D03*
X-297101173Y-742265508D03*
X-234726985Y-6021158D03*
X547909790Y-56966524D03*
X-719171643Y470830288D03*
X413103415Y330007533D03*
X837725029Y34249724D03*
X-247577508Y-916824794D03*
X821546607Y399325090D03*
X582473605Y-545805378D03*
X480094552Y-484307432D03*
X-598568859Y876746306D03*
X783175367Y507929984D03*
X-743997024Y832644281D03*
X166745734Y-132557052D03*
X-322702407Y-247505412D03*
X-880210442Y-915448974D03*
X-182250731Y-78541787D03*
X-466472137Y359741268D03*
X-502028279Y818902035D03*
X466791822Y946888365D03*
X-903022094Y382080730D03*
X-255230076Y-930462193D03*
X-893348363Y599499224D03*
X742700250Y-257285809D03*
X575161098Y564298757D03*
X998991275Y864332841D03*
X-907872019Y-690589076D03*
X-229230257Y-254976271D03*
X-356767620Y-373245487D03*
X-414354330Y343765857D03*
X236201689Y343614643D03*
X-640567838Y-31347767D03*
X986280116Y-802088764D03*
X798563065Y527491528D03*
X-988083318Y30194461D03*
X-200517440Y802675949D03*
X926128194Y967523099D03*
X636206001Y-76789282D03*
X523816499Y-219402994D03*
X519131674Y15887339D03*
X-131051332Y544772649D03*
X-63100052Y858442514D03*
X-220004680Y322295418D03*
X-704068134Y-634884584D03*
X-569924254Y295065976D03*
X-557103587Y610841698D03*
X-928353618Y-536049146D03*
X997750608Y841120281D03*
X63159082Y-170164692D03*
X471507700Y269002955D03*
X820331894Y216676315D03*
X577682335Y136383109D03*
X-389906940Y340531526D03*
X549366511Y457414458D03*
X941966108Y718920513D03*
X-986941164Y476201554D03*
X781334436Y768649147D03*
X66888002Y637886728D03*
X-747186634Y483027783D03*
X-706759907Y816825314D03*
X218373156Y-402822208D03*
X298766368Y516907348D03*
X-502000880Y-52134685D03*
X541760468Y616965714D03*
X-346893404Y-226126230D03*
X-23795840Y-346894613D03*
X-145828420Y503538675D03*
X947000557Y294915247D03*
X916465297Y-246100684D03*
X388981979Y698493890D03*
X63679231Y-130380144D03*
X474797176Y-991588225D03*
X-917974247Y441825856D03*
X-339775344Y710875534D03*
X-782827273Y821601802D03*
X170141638Y-932440605D03*
X-156320362Y722770807D03*
X600072927Y-32489987D03*
X-22145049Y-29128744D03*
X324085652Y-849775912D03*
X-925517236Y354178417D03*
X-590319020Y973071637D03*
X-58709066Y-126431044D03*
X562738539Y478224334D03*
X-391281843Y-544945279D03*
X130347198Y255980430D03*
X-432069437Y525954618D03*
X-86345921Y75965769D03*
X427744593Y-471721426D03*
X-192589423Y-587213896D03*
X-862650702Y-97350531D03*
X-92546202Y-512969590D03*
X902817592Y-161659160D03*
X-360708530Y185954895D03*
X477322238Y-490300554D03*
X-427926681Y137133595D03*
X921905805Y-122145260D03*
X885967402Y836961244D03*
X-491706241Y7218452D03*
X-302561131Y-73237119D03*
X179601421Y-546849286D03*
X78564272Y275345362D03*
X833184654Y-467210103D03*
X-130394559Y-90410728D03*
X165404000Y631770019D03*
X-297099915Y-14403780D03*
X-4637758Y-369275246D03*
X-333337190Y436719745D03*
X-631458345Y749732665D03*
X-289572639Y-181962033D03*
X166133066Y-61924165D03*
X413259282Y490554154D03*
X-51135995Y-910563761D03*
X-973585032Y772419533D03*
X629536560Y-250632616D03*
X149873374Y5781225D03*
X-866219798Y-185205021D03*
X-901764584Y5785062D03*
X874106001Y392946908D03*
X577080106Y-677619617D03*
X681384702Y-17048913D03*
X-84469310Y396692064D03*
X-462321787Y338749522D03*
X211276309Y-12917249D03*
X791128802Y518010447D03*
X-460503132Y-742374448D03*
X667896131Y583678459D03*
X-769274159Y-969401665D03*
X810657285Y-760440211D03*
X-761728688Y-742567449D03*
X-991343279Y-441545337D03*
X-589076804Y-202230640D03*
X-752848695Y524683826D03*
X281871720Y-355230229D03*
X-867132211Y559221674D03*
X-7533917Y842523747D03*
X965944227Y150400212D03*
X397757297Y404522263D03*
X591295228Y-801352971D03*
X449074257Y34943004D03*
X-140124111Y-870786535D03*
X948350023Y412210572D03*
X-791594786Y905615945D03*
X594792165Y332583561D03*
X252087336Y-619773921D03*
X-588735136Y-562173771D03*
X-528491142Y302859418D03*
X223927762Y-211424602D03*
X617814188Y237653810D03*
X-273190623Y-331816957D03*
X-948302878Y-638642478D03*
X587298939Y-562259413D03*
X381993702Y881336366D03*
X570288116Y487640784D03*
X879550678Y315353325D03*
X-603385154Y600450046D03*
X680547600Y-26054162D03*
X858973619Y159400969D03*
X-996973617Y330173028D03*
X944404996Y820039237D03*
X-915689286Y-300065419D03*
X432593806Y709470133D03*
X625091917Y-769915131D03*
X-575183986Y803647229D03*
X286134877Y-593391182D03*
X795464772Y953518074D03*
X879785719Y-893349574D03*
X-511018376Y-301003164D03*
X341982075Y843495483D03*
X69073169Y889604305D03*
X438283335Y-589479790D03*
X-251980875Y86789103D03*
X-961448492Y-759911988D03*
X-475970112Y389994187D03*
X-768274840Y268413067D03*
X-445743298Y74035333D03*
X-503770094Y-407099741D03*
X780919082Y-667780491D03*
X687961737Y900251915D03*
X-420326196Y667270466D03*
X132748654Y-928000683D03*
X150488399Y663602820D03*
X-994420413Y126337828D03*
X-130429175Y-547287477D03*
X-166180259Y746573554D03*
X-999094378Y320129344D03*
X-496427410Y-178613770D03*
X227969525Y238191482D03*
X-453982453Y-366620681D03*
X144029760Y590549893D03*
X560990110Y386335471D03*
X383616291Y-705782370D03*
X667977258Y-724733417D03*
X-247880679Y277888636D03*
X23797999Y-864340208D03*
X-260631145Y547976109D03*
X390219140Y658805509D03*
X-548537370Y-461019381D03*
X-719273411Y516097437D03*
X695496237Y345082033D03*
X317319092Y556325862D03*
X516133693Y-493861959D03*
X85810406Y-599945544D03*
X675052636Y582313018D03*
X168029031Y-598870774D03*
X-754601184Y660296394D03*
X-236715885Y-587376378D03*
X962503216Y-956092803D03*
X108005898Y-677427407D03*
X302202993Y-126783652D03*
X-360767997Y-271374656D03*
X266706954Y66672217D03*
X-423988118Y-376735336D03*
X-733598519Y658676395D03*
X-388779170Y-251692282D03*
X-789111521Y327133712D03*
X251533513Y605812340D03*
X462791431Y-3599813D03*
X-74020622Y294325941D03*
X872026840Y-806284907D03*
X-87435708Y-752961538D03*
X43249033Y192987633D03*
X516737901Y658285667D03*
X-572574039Y-353626780D03*
X-971148331Y-307346075D03*
X-584954816Y251731760D03*
X-654082508Y258341614D03*
X-688473765Y-361682564D03*
X444827923Y136531650D03*
X73792719Y576060139D03*
X655314268Y-516955776D03*
X-446857990Y-309273809D03*
X-70203036Y-802292306D03*
X-645832671Y-512656340D03*
X-887408909Y-886815715D03*
X-865147825Y776835096D03*
X-940840005Y947900537D03*
X60203954Y79965530D03*
X-443231362Y-151060650D03*
X-760780263Y-789852174D03*
X794710059Y917672717D03*
X-97240337Y-356640701D03*
X74289276Y-758277040D03*
X-803410545Y-417171771D03*
X-582346246Y71088544D03*
X-910677856Y-172708039D03*
X-503154296Y-860638197D03*
X654224648Y485403806D03*
X49359882Y812725789D03*
X-408405114Y-518251759D03*
X915539320Y-174908347D03*
X-369304185Y416782261D03*
X986676525Y621990265D03*
X-203518985Y-689284684D03*
D11*
X0Y0D02*
G01*
X-4731342Y8153047D01*
X-6391052Y6214653D01*
X-6670983Y21384720D01*
X-1073967Y34795411D01*
X15400329Y57849992D01*
X-239061Y35170912D01*
X-25533252Y17118460D01*
X-36748103Y29005767D01*
X-35648057Y17228754D01*
X-31636695Y43817222D01*
X-13209907Y31769188D01*
X-40461068Y51579722D01*
X-47077304Y36791198D01*
X-73174715Y43035052D01*
X-90071658Y57818416D01*
X-114655484Y79662129D01*
X-112619691Y77442336D01*
X-89121855Y92168203D01*
X-67708414Y111096098D01*
X-40998831Y116465538D01*
X-11056345Y114154424D01*
X18103383Y120437651D01*
X17549219Y99624517D01*
X44548319Y72853993D01*
X47403574Y54943238D01*
X33039866Y73837929D01*
X62330637Y47338399D01*
X67225976Y69126995D01*
X82395638Y50186739D01*
X112766447Y45393430D01*
X111690074Y31791259D01*
X101782342Y24753922D01*
X126606614Y11966140D01*
X95832379Y26169540D01*
X89558893Y24717844D01*
X72130367Y6532273D01*
X80167730Y-14384485D01*
X86501174Y-5675907D01*
X106790990Y25370887D01*
X123932313Y348823D01*
X135079416Y-1021787D01*
X164322298Y-16031830D01*
X146512678Y-37483901D01*
X129182391Y-56523211D01*
X125915755Y-82942241D01*
X118061555Y-60397119D01*
X101082926Y-65790775D01*
X131845035Y-38247867D01*
X111359333Y-50971530D01*
X95977289Y-61729836D01*
X93496173Y-89642448D01*
X110135332Y-91751308D01*
X105669739Y-89116702D01*
X125570320Y-63353413D01*
X153172415Y-53667690D01*
X128705623Y-30055476D01*
X116390055Y-50424009D01*
X86904078Y-62904351D01*
X84617742Y-89208278D01*
X63419085Y-101545059D01*
X91496403Y-129120809D01*
X122044891Y-124590957D01*
X128492325Y-132920492D01*
X108898482Y-114537491D01*
X122331844Y-115972854D01*
X150052550Y-101944664D01*
X157485528Y-106975878D01*
X177463279Y-122840948D01*
X183412289Y-124754487D01*
X209398307Y-109787679D01*
X199628682Y-124233613D01*
X215945934Y-99648464D01*
X186475072Y-80985826D01*
X209781469Y-71638813D01*
X205860064Y-61777446D01*
X206137558Y-63965936D01*
X180659778Y-46462948D01*
X206024746Y-69930072D01*
X236447664Y-96814163D01*
X211199371Y-123421967D01*
X231471749Y-111057468D01*
X252631774Y-95531383D01*
X284240411Y-94294223D01*
X287751206Y-109181715D01*
X313323503Y-121466566D01*
X318560182Y-137458415D01*
X305416152Y-161373792D01*
X292164648Y-139089361D01*
X302901480Y-133257822D01*
X328857428Y-124749581D01*
X308367633Y-118860239D01*
X331263396Y-125805899D01*
X336903718Y-126071213D01*
X366028367Y-148365912D01*
X353495196Y-148781110D01*
X377032021Y-177770171D01*
X377246666Y-184348844D01*
X378484750Y-187226285D01*
X402322154Y-170872302D01*
X382596538Y-144852704D01*
X360339821Y-149637458D01*
X365999807Y-134268563D01*
X344183802Y-152670466D01*
X320302449Y-162658256D01*
X324591902Y-133369139D01*
X349455933Y-142802653D01*
X336409042Y-124748282D01*
X353807031Y-131478834D01*
X363687132Y-134989018D01*
X365912163Y-140206884D01*
X372875079Y-157928518D01*
X358424678Y-147710648D01*
X366989133Y-136896251D01*
X361020137Y-123967122D01*
X359416375Y-126602815D01*
X328097500Y-136039156D01*
X304605239Y-140167719D01*
X330221782Y-112121869D01*
X348528647Y-113424590D01*
X319017274Y-100036801D01*
X295390879Y-129937123D01*
X305552784Y-148564313D01*
X304811283Y-140845467D01*
X298270673Y-116233245D01*
X309342153Y-145420526D01*
X296011087Y-164005157D01*
X289485754Y-134729324D01*
X283692832Y-132578743D01*
X307558302Y-121057809D01*
X292206070Y-138043625D01*
X268366562Y-109534753D01*
X240917137Y-136333615D01*
X266318523Y-127928387D01*
X296089469Y-119164357D01*
X294603141Y-120166358D01*
X323583931Y-140282108D01*
X317544161Y-150277884D01*
X317699769Y-134866646D01*
X299165163Y-104950820D01*
X319235882Y-91768454D01*
X331222997Y-82794533D01*
X354792631Y-105066802D01*
X344117314Y-91585864D01*
X374916218Y-76298526D01*
X377589268Y-58063712D01*
X353222803Y-53919512D01*
X332129661Y-68532528D01*
X357952332Y-48625860D01*
X383810672Y-69685556D01*
X383637708Y-38864649D01*
X362302201Y-27405792D01*
X381795896Y-39417020D01*
X363778080Y-68727044D01*
X333679545Y-74528968D01*
X322735843Y-85891635D01*
X323695908Y-76093991D01*
X302183705Y-68806581D01*
X304966035Y-95788901D01*
X303932977Y-73634529D01*
X274555654Y-57009895D01*
X301992006Y-86679296D01*
X273501818Y-110960341D01*
X288341026Y-92951860D01*
X274836593Y-109723842D01*
X264359945Y-86026308D01*
X293576293Y-97419081D01*
X272746337Y-89805987D01*
X256093160Y-118046272D01*
X235111471Y-121239572D01*
X213049160Y-96222964D01*
X238214370Y-123434194D01*
X239349200Y-144457117D01*
X244117575Y-133835943D01*
X258221891Y-151080454D01*
X288806264Y-170796105D01*
X303018816Y-169845424D01*
X308086050Y-184495672D01*
X312483157Y-199672770D01*
X296690786Y-199799285D01*
X292612370Y-226684683D01*
X272564034Y-251566968D01*
X263020531Y-229790100D01*
X264253176Y-248167808D01*
X233327492Y-220495834D01*
X249327480Y-233199196D01*
X255141142Y-234465209D01*
X262589532Y-228863505D01*
X251176166Y-206322492D01*
X223539121Y-220048648D01*
X243760695Y-199478313D01*
X220743628Y-173738675D01*
X208603527Y-153174139D01*
X188093739Y-147550084D01*
X210276653Y-147761540D01*
X183202302Y-161969728D01*
X163259446Y-146974545D01*
X134601081Y-134326447D01*
X131466873Y-119904051D01*
X157747574Y-143783155D01*
X138732725Y-138856493D01*
X153687849Y-112026757D01*
X161891451Y-108653915D01*
X157159352Y-101535581D01*
X143970999Y-75068510D01*
X154309060Y-93577804D01*
X158805932Y-69372731D01*
X182189584Y-85252578D01*
X187965905Y-56384981D01*
X203144029Y-46811872D01*
X214593509Y-77258183D01*
X229310803Y-102744860D01*
X253185559Y-121632761D01*
X223753530Y-119186465D01*
X240893311Y-117727093D01*
X243702665Y-110238941D01*
X229819224Y-102641994D01*
X206532760Y-76728458D01*
X194414892Y-88949788D01*
X195811171Y-58061250D01*
X204405744Y-30105506D01*
X208982466Y-56426557D01*
X182047423Y-86900432D01*
X182255781Y-83360655D01*
X197131012Y-82213225D01*
X195415611Y-105782202D01*
X219225624Y-96427198D01*
X195636515Y-95470205D01*
X210302334Y-113935862D01*
X179610983Y-117039329D01*
X194684966Y-140186636D01*
X204496965Y-161925811D01*
X204167863Y-156753261D01*
X199082346Y-161131330D01*
X213782054Y-176347867D01*
X182836789Y-201587746D01*
X194072965Y-200157235D01*
X204394653Y-178630753D01*
X223800188Y-172247156D01*
X253077967Y-185430826D01*
X246081296Y-213398300D01*
X216945533Y-231973774D01*
X218232828Y-202185573D01*
X196590800Y-179822339D01*
X182414582Y-198541230D01*
X200099013Y-209369407D01*
X188044189Y-193674643D01*
X185952547Y-191884806D01*
X157518342Y-183103562D01*
X184177655Y-204550900D01*
X213815894Y-227707851D01*
X225369151Y-209051614D01*
X199037320Y-191063150D01*
X214880982Y-202863497D01*
X193705264Y-180133589D01*
X213529095Y-167464062D01*
X195123627Y-177809691D01*
X195485726Y-152623985D01*
X199061054Y-173339915D01*
X185752252Y-149062039D01*
X162032220Y-137890142D01*
X135943484Y-126113629D01*
X137608926Y-117972783D01*
X159800710Y-89450807D01*
X134789290Y-91822136D01*
X166150028Y-93101455D01*
X188115892Y-96606109D01*
X157728226Y-109291118D01*
X156484813Y-127896893D01*
X162089618Y-129618633D01*
X165847093Y-115278802D01*
X188878755Y-87132082D01*
X207434838Y-84460219D01*
X237854311Y-113560319D01*
X244838233Y-121335203D01*
X223614706Y-105631814D01*
X193498639Y-87835700D01*
X198416295Y-86231981D01*
X224901633Y-105734118D01*
X227750271Y-127781088D01*
X224755094Y-99648065D01*
X199429609Y-117211179D01*
X192897393Y-132709481D01*
X169102137Y-151268188D01*
X174065034Y-179506636D01*
X152694273Y-178754957D01*
X130415263Y-153021572D01*
X135432690Y-148665560D01*
X124415317Y-121548646D01*
X109138596Y-107555379D01*
X126883648Y-91445487D01*
X108410789Y-101765073D01*
X126939263Y-116444231D01*
X148282931Y-97579718D01*
X140290601Y-76380209D01*
X164199291Y-95607380D01*
X157461221Y-88376382D01*
X181334734Y-116926516D01*
X197372041Y-105208025D01*
X221601054Y-134081472D01*
X249003582Y-154087834D01*
X267950639Y-147363051D01*
X241527472Y-119276159D01*
X270413614Y-97349452D01*
X256134525Y-108733674D01*
X239874505Y-89227623D01*
X243821741Y-101778897D01*
X217752202Y-75854176D01*
X199235126Y-98840288D01*
X223146539Y-105703441D01*
X207275378Y-85324274D01*
X238250302Y-97168330D01*
X218114914Y-66358902D01*
X198196789Y-70990552D01*
X218739903Y-49916479D01*
X203385741Y-75513118D01*
X195974208Y-82889337D01*
X178556877Y-69974353D01*
X193898440Y-93349091D01*
X213060683Y-76872313D01*
X224296822Y-81987625D01*
X222168234Y-74519132D01*
X225525974Y-55680862D01*
X196685959Y-32624228D01*
X192774265Y-50420079D01*
X222175740Y-55588543D01*
X193331734Y-48761121D01*
X172600205Y-51755625D01*
X156977853Y-79052071D01*
X187484779Y-110665072D01*
X180417442Y-117257534D01*
X169105713Y-97000630D01*
X155370608Y-75190769D01*
X174576496Y-81899763D01*
X156116943Y-69737680D01*
X143602880Y-70082942D01*
X138843397Y-48144813D01*
X136674912Y-74269114D01*
X162791677Y-85839961D01*
X187273212Y-77615334D01*
X205311389Y-93255403D01*
X182026862Y-105596498D01*
X171205849Y-90173881D01*
X178157460Y-115712936D01*
X189742646Y-97192540D01*
X166695423Y-94275628D01*
X179594939Y-93098992D01*
X171399992Y-107644065D01*
X191935031Y-125378292D01*
X194235344Y-95787985D01*
X220708747Y-91343594D01*
X251881882Y-101289666D01*
X264805839Y-132118392D01*
X277721826Y-135591594D01*
X307244496Y-131281688D01*
X290055086Y-144475093D01*
X298780761Y-143974923D01*
X300344696Y-151975540D01*
X308430314Y-176812586D01*
X279191615Y-150054423D01*
X296276361Y-128511396D01*
X319965536Y-99053881D01*
X294191664Y-82215902D01*
X304167533Y-101470551D01*
X334096809Y-120055278D01*
X351564457Y-135049955D01*
X377925049Y-116704470D01*
X355917428Y-133654429D01*
X377120832Y-125455058D01*
X394846874Y-96682026D01*
X423799331Y-101205991D01*
X426061960Y-123133822D01*
X400358612Y-123638593D01*
X411217806Y-111082615D01*
X422579347Y-107972057D01*
X412230648Y-117944538D01*
X400420969Y-112296001D01*
X411067521Y-143842780D01*
X391246437Y-173660891D01*
X388084623Y-194690081D01*
X405508662Y-171390649D01*
X401742874Y-149751819D01*
X400868174Y-147017179D01*
X381801956Y-164479819D01*
X397966318Y-153960389D01*
X416487534Y-139582776D01*
X447589268Y-169203497D01*
X465778910Y-145843833D01*
X469847551Y-177245975D01*
X444294962Y-160842412D01*
X418578507Y-163690126D01*
X431754208Y-167631962D01*
X421601540Y-154172222D01*
X404190645Y-183206139D01*
X375983078Y-209430573D01*
X402640430Y-239598482D01*
X432461335Y-216697061D01*
X429074162Y-222278855D01*
X404404268Y-202162858D01*
X430925569Y-198382149D01*
X423109596Y-228460927D01*
X430116265Y-211051439D01*
X421376359Y-235725555D01*
X394817765Y-218405990D01*
X415175472Y-232618691D01*
X434290550Y-235984999D01*
X419328000Y-255147346D01*
X393626911Y-283889945D01*
X386597160Y-264348312D01*
X373536688Y-241981688D01*
X389036390Y-242378796D01*
X366426430Y-266210343D01*
X349643617Y-294171432D01*
X320578056Y-286653193D01*
X338981298Y-305996270D01*
X368247544Y-332706646D01*
X345950326Y-312260178D01*
X322193760Y-336259689D01*
X307102412Y-335334416D01*
X281132420Y-311779282D01*
X264466253Y-341753771D01*
X249953145Y-323996595D01*
X274363949Y-335265109D01*
X268162485Y-344741349D01*
X254348662Y-320465192D01*
X223335194Y-311141381D01*
X251209846Y-317719108D01*
X263876377Y-310013750D01*
X267076698Y-330714631D01*
X281862195Y-348657006D01*
X276953815Y-375668034D01*
X258856098Y-374152315D01*
X271350730Y-387605225D01*
X272484043Y-406103476D01*
X300261110Y-421402750D01*
X280432290Y-434681314D01*
X298399003Y-455169468D01*
X268294460Y-441382415D01*
X245694868Y-436422477D01*
X229054325Y-431277222D01*
X251611598Y-438969081D01*
X238493274Y-449743117D01*
X234995221Y-463147810D01*
X253188910Y-483048379D01*
X228740032Y-476718931D01*
X213464842Y-458230219D01*
X217101069Y-434758933D01*
X223207939Y-437014553D01*
X203285991Y-405656426D01*
X188899932Y-411696028D01*
X187777498Y-413065449D01*
X204970328Y-444407572D01*
X203558898Y-416145369D01*
X210178194Y-429113189D01*
X214980024Y-423358009D01*
X245296129Y-420867051D01*
X269446386Y-432938141D01*
X275968598Y-452273579D01*
X288695303Y-449935873D01*
X298508653Y-479309905D01*
X322919697Y-461834695D01*
X332931753Y-465504347D01*
X332724137Y-455593098D01*
X329375799Y-468677358D01*
X332124663Y-498785901D01*
X303411349Y-484715574D01*
X315982909Y-497663917D01*
X336020842Y-469599131D01*
X365433068Y-448592124D01*
X350553487Y-470431862D01*
X322532594Y-483564879D01*
X319148190Y-487087345D01*
X326929126Y-481359784D01*
X354016318Y-460098278D01*
X381596286Y-490688437D01*
X390290385Y-492742767D01*
X371512017Y-474147434D01*
X352823284Y-454480048D01*
X329542926Y-474075694D01*
X303061619Y-454127573D01*
X300147501Y-427739310D01*
X281746325Y-398795390D01*
X259584488Y-415670514D01*
X253791945Y-437280463D01*
X275004226Y-455880401D01*
X287948694Y-477038812D01*
X290613341Y-477216232D01*
X274637935Y-501914890D01*
X298612169Y-500289185D01*
X301408089Y-522041951D01*
X281697646Y-538203062D01*
X254701363Y-517467215D01*
X245929270Y-546509396D01*
X246419441Y-563162207D01*
X240653867Y-575299155D01*
X252418821Y-589406394D01*
X249438758Y-581707531D01*
X238085679Y-603426328D01*
X265997736Y-599795898D01*
X243158245Y-595610859D01*
X243754768Y-625642172D01*
X247598354Y-656560024D01*
X257178182Y-672034572D01*
X250868796Y-654646263D01*
X236008674Y-661680784D01*
X216079467Y-632114273D01*
X237522041Y-607114912D01*
X268094486Y-603305623D01*
X269861218Y-610537168D01*
X267201799Y-637625231D01*
X247518494Y-640286141D01*
X264315367Y-656540661D01*
X292369664Y-676883621D01*
X286360381Y-685161792D01*
X278006436Y-704251995D01*
X281662955Y-703157172D01*
X251316147Y-731789481D01*
X243124199Y-751458266D01*
X264409687Y-743555194D01*
X269420867Y-754083236D01*
X259130945Y-761576753D01*
X279181981Y-738442537D01*
X294114307Y-753903502D01*
X308444037Y-783481152D01*
X318904405Y-774224326D01*
X297450874Y-791188207D01*
X310832631Y-809717069D01*
X332466895Y-807832777D01*
X313367963Y-806717952D01*
X343058575Y-786679518D01*
X374360674Y-774816548D01*
X364013215Y-761046697D01*
X349322204Y-757692193D01*
X329974272Y-750893381D01*
X303914545Y-743214887D01*
X331865470Y-774132370D01*
X349283594Y-781827520D01*
X350189752Y-811971460D01*
X324244463Y-833467098D01*
X305952811Y-861509059D01*
X318853876Y-855127102D01*
X309311750Y-880199912D01*
X307233689Y-868922375D01*
X295304354Y-883114451D01*
X324466127Y-861253250D01*
X332542429Y-881119690D01*
X303762921Y-857250561D01*
X293877285Y-838985502D01*
X293573901Y-809410329D01*
X297038129Y-840533878D01*
X326894453Y-852416819D01*
X354940476Y-870518640D01*
X348074416Y-887191013D01*
X354958297Y-901069214D01*
X386084562Y-906475651D01*
X380923718Y-922778412D01*
X408202938Y-908129945D01*
X399604125Y-900774617D01*
X370339704Y-918455834D01*
X346053257Y-927110148D01*
X317981025Y-930827712D01*
X298655029Y-960943898D01*
X290274701Y-950122143D01*
X292130455Y-934438734D01*
X272079638Y-917610019D01*
X262627320Y-931844556D01*
X270693689Y-919874602D01*
X299202246Y-932712969D01*
X309760775Y-921014120D01*
X334091159Y-910548022D01*
X331652889Y-941248138D01*
X305869509Y-948744874D01*
X313387349Y-963111770D01*
X332688922Y-964172340D01*
X314514464Y-933593304D01*
X309115828Y-934797467D01*
X308442915Y-950078107D01*
X292707646Y-925198709D01*
X319668925Y-916160731D01*
X328946754Y-941564903D01*
X353211371Y-957112959D01*
X330804721Y-988240745D01*
X311982756Y-983945713D01*
X308497569Y-987026375D01*
X282034902Y-993852350D01*
X268454693Y-997336515D01*
X272653445Y-975349969D01*
X272605534Y-976848510D01*
X271107903Y-945335490D01*
X289568132Y-941823144D01*
X266730791Y-944603650D01*
X297062378Y-949066972D01*
X302547940Y-944204012D01*
X306660235Y-918152298D01*
X297583070Y-927544622D01*
X286673473Y-925358294D01*
X296256406Y-940229357D01*
X270783008Y-916924637D01*
X300668041Y-890968101D01*
X321927180Y-914379572D01*
X303987917Y-931405391D01*
X314084825Y-957280898D01*
X285960339Y-973987328D01*
X261485010Y-977481393D01*
X250657950Y-960195349D01*
X279140120Y-975788174D01*
X305168726Y-948051059D01*
X300052162Y-920282012D01*
X279635781Y-930885037D01*
X279069720Y-916818771D01*
X304438775Y-941677717D01*
X325472982Y-925150715D01*
X338552922Y-921982954D01*
X355344347Y-951780118D01*
X351520880Y-921330964D01*
X369690834Y-891234282D01*
X369050629Y-891302493D01*
X369731010Y-875094128D01*
X369929185Y-846800316D01*
X343882322Y-862222092D01*
X317331866Y-854332435D01*
X334133372Y-856317200D01*
X337439064Y-876708113D01*
X353829332Y-855057264D01*
X326758393Y-858725050D01*
X326054272Y-845805607D01*
X326101226Y-850969414D01*
X338067289Y-833289944D01*
X309434830Y-863057252D01*
X339093587Y-877326574D01*
X309344925Y-867498625D01*
X323094336Y-856991317D01*
X305564334Y-851447145D01*
X292770766Y-873415147D01*
X300717756Y-848973934D01*
X324637942Y-874388905D01*
X344706681Y-879528414D01*
X327213413Y-866176765D01*
X322399316Y-839404304D01*
X298200234Y-841499006D01*
X275726714Y-862566038D01*
X246474312Y-869877971D01*
X269062589Y-883909037D01*
X247316321Y-905854233D01*
X221049883Y-885791146D01*
X221513154Y-880087054D01*
X198224505Y-896986904D01*
X180013955Y-921343072D01*
X175905314Y-914537698D01*
X154665736Y-939570686D01*
X156109254Y-938531184D01*
X177899242Y-920335750D01*
X147772578Y-927210125D01*
X143535597Y-955435537D01*
X174577420Y-931602937D01*
X152392521Y-946945204D01*
X179855096Y-955578888D01*
X187385616Y-942457127D01*
X165091774Y-932502277D01*
X163161763Y-915867085D01*
X145644900Y-933750702D01*
X164693010Y-963250383D01*
X146586991Y-971288508D01*
X161024736Y-954153371D01*
X155908763Y-944010817D01*
X130003788Y-939469239D01*
X123178349Y-908677694D01*
X111259039Y-906657678D01*
X100425495Y-930096599D01*
X104427427Y-947799217D01*
X82654253Y-949294954D01*
X71391011Y-971874142D01*
X92629853Y-972344311D01*
X103694354Y-995372713D01*
X129517468Y-991217319D01*
X124843241Y-1012431812D01*
X131600228Y-995154371D01*
X126066468Y-964481739D01*
X130505050Y-933772016D01*
X158881014Y-908376548D01*
X150343573Y-932940253D01*
X159345143Y-962577517D01*
X136850667Y-944312488D01*
X126282756Y-962991961D01*
X137020878Y-960241118D01*
X126148070Y-985142875D01*
X105436460Y-996200172D01*
X94228142Y-992873393D01*
X83227157Y-988992746D01*
X100177234Y-991701500D01*
X102911298Y-998816309D01*
X110230170Y-978159279D01*
X133713042Y-970197961D01*
X149984987Y-991273376D01*
X128616022Y-1016531461D01*
X151005659Y-1034092169D01*
X167113607Y-1038981673D01*
X166447313Y-1020542678D01*
X158933591Y-1014746820D01*
X129870633Y-998231981D01*
X116796916Y-996750713D01*
X104768295Y-1012035228D01*
X88580957Y-1024757387D01*
X72943435Y-998239378D01*
X67317214Y-981432879D01*
X84199833Y-1001523377D01*
X103154315Y-991771233D01*
X100285172Y-961416497D01*
X120112874Y-935805293D01*
X142299262Y-931233298D01*
X114564700Y-942036346D01*
X87150171Y-932989780D01*
X86304808Y-950421282D01*
X104684429Y-968825281D01*
X112778530Y-942679015D01*
X109890431Y-943661092D01*
X128026877Y-967672498D01*
X135211905Y-987362488D01*
X149625870Y-990910176D01*
X134498688Y-1014072429D01*
X116861390Y-1041159180D01*
X105257317Y-1047932880D01*
X75521025Y-1036683415D01*
X96457046Y-1063002612D01*
X82619994Y-1050884702D01*
X70992859Y-1032997612D01*
X41006086Y-1064183267D01*
X21647359Y-1091053316D01*
X25612162Y-1104761588D01*
X48953068Y-1080503147D01*
X46367608Y-1059122528D01*
X24397702Y-1086152907D01*
X16150559Y-1055536749D01*
X7023042Y-1037273591D01*
X32492309Y-1053913329D01*
X9474047Y-1034786874D01*
X21410630Y-1004146273D01*
X49753898Y-1034879294D01*
X81016020Y-1042011557D01*
X65670736Y-1038611221D01*
X34936977Y-1020072760D01*
X3739190Y-995276264D01*
X1671928Y-1025710466D01*
X-11264708Y-1045069701D01*
X-14994579Y-1022747809D01*
X11305119Y-993222493D01*
X-2123352Y-989512694D01*
X2319642Y-977620845D01*
X-6902280Y-949154355D01*
X-29136315Y-975730846D01*
X-15392486Y-985892243D01*
X-45253189Y-994153788D01*
X-70262142Y-965290028D01*
X-99583957Y-940369105D01*
X-102789873Y-920413791D01*
X-125748189Y-904714394D01*
X-122591431Y-886734876D01*
X-102931259Y-914056542D01*
X-99117382Y-943614605D01*
X-117919466Y-945191159D01*
X-88864411Y-916830761D01*
X-96084301Y-906413258D01*
X-70274026Y-920661517D01*
X-55726410Y-944547792D01*
X-64481186Y-925034890D01*
X-74429913Y-894749152D01*
X-79160962Y-900517435D01*
X-84286429Y-885117161D01*
X-79750442Y-908532191D01*
X-90567115Y-910481457D01*
X-93568191Y-930359687D01*
X-69059870Y-959442421D01*
X-89255066Y-981752771D01*
X-78539739Y-970442134D01*
X-77949042Y-1000990043D01*
X-71969627Y-1015940976D01*
X-70323042Y-1023033582D01*
X-91766337Y-1012750146D01*
X-61184411Y-984272469D01*
X-59897676Y-987450623D01*
X-45615140Y-978623929D01*
X-22160147Y-962943306D01*
X-29969350Y-969138018D01*
X-23261918Y-996020225D01*
X-50803054Y-980032501D01*
X-74696429Y-961576743D01*
X-60891955Y-940472975D01*
X-65149422Y-925936033D01*
X-67507779Y-924219437D01*
X-80443449Y-940054734D01*
X-90958221Y-947950063D01*
X-93032937Y-919473978D01*
X-120348328Y-903888832D01*
X-119619747Y-907204361D01*
X-127292362Y-916024593D01*
X-126334232Y-891845685D01*
X-141551862Y-864395797D01*
X-142940943Y-848332670D01*
X-158125987Y-854376657D01*
X-127185319Y-845962210D01*
X-98656190Y-831461945D01*
X-73317551Y-834044294D01*
X-71326776Y-860981650D01*
X-79222080Y-850019619D01*
X-61061297Y-837625176D01*
X-65610679Y-861569512D01*
X-54393789Y-860475242D01*
X-63292536Y-839216515D01*
X-52445376Y-845079710D01*
X-55931656Y-876079725D01*
X-84899786Y-859545755D01*
X-63024315Y-865091501D01*
X-75344161Y-861974845D01*
X-80766932Y-869298158D01*
X-102854179Y-878391040D01*
X-81472975Y-852808851D01*
X-83571557Y-876937129D01*
X-91300691Y-848887540D01*
X-116003671Y-841167497D01*
X-123182505Y-846912933D01*
X-141644804Y-872927170D01*
X-167353986Y-884488711D01*
X-144958278Y-868499689D01*
X-132091039Y-899845419D01*
X-150411822Y-873995228D01*
X-164147572Y-857650087D01*
X-181242289Y-853427240D01*
X-198796845Y-850313531D01*
X-183024526Y-862047726D01*
X-179970267Y-844939548D01*
X-171955377Y-854117919D01*
X-181506377Y-850724424D01*
X-177123674Y-862512595D01*
X-190422145Y-890698649D01*
X-159971213Y-862577368D01*
X-175861749Y-855677811D01*
X-158844900Y-831174405D01*
X-134436936Y-808612849D01*
X-103177410Y-810773124D01*
X-124385262Y-829850864D01*
X-126639142Y-839960667D01*
X-97705819Y-820993725D01*
X-119778700Y-836364583D01*
X-150102863Y-857739230D01*
X-123524365Y-878933031D01*
X-129292248Y-870425462D01*
X-160586995Y-876378950D01*
X-162788952Y-865590784D01*
X-150964108Y-864516278D01*
X-161383341Y-866141033D01*
X-181617940Y-857698999D01*
X-212790117Y-838154030D01*
X-243325568Y-839281067D01*
X-257841558Y-831268812D01*
X-237889393Y-840440111D01*
X-252321446Y-867840362D01*
X-238855307Y-849189970D01*
X-267653897Y-858588332D01*
X-266152762Y-863018058D01*
X-239854709Y-884154986D01*
X-216092522Y-907166945D01*
X-220516846Y-899368120D01*
X-245405572Y-927776315D01*
X-246998404Y-940151755D01*
X-274257803Y-921142893D01*
X-280786740Y-891170013D01*
X-250992987Y-886295608D01*
X-245214251Y-878973902D01*
X-265377836Y-852568694D01*
X-234275351Y-842247108D01*
X-261910772Y-847594444D01*
X-238123418Y-849859598D01*
X-259873485Y-874303950D01*
X-270365950Y-877550184D01*
X-243800248Y-860837440D01*
X-259545645Y-838507628D01*
X-241102716Y-821094373D01*
X-249419884Y-789712282D01*
X-272025569Y-775601654D01*
X-277462641Y-764478217D01*
X-284038613Y-736775252D01*
X-259492636Y-718322725D01*
X-288545782Y-703587847D01*
X-262628928Y-712344745D01*
X-293021488Y-683629845D01*
X-309151298Y-705165022D01*
X-330069748Y-676051116D01*
X-355152378Y-686405362D01*
X-333698308Y-667734467D01*
X-325253492Y-680301384D01*
X-337622933Y-706397689D01*
X-330245900Y-715089631D01*
X-309294919Y-700775780D01*
X-332381301Y-721315976D01*
X-341085458Y-701948532D01*
X-364538376Y-676704053D01*
X-337937066Y-657771951D01*
X-336814578Y-687601147D01*
X-356457808Y-698902833D01*
X-333877819Y-727868234D01*
X-306117837Y-751615007D01*
X-278005122Y-770315645D01*
X-297176525Y-776226721D01*
X-278590047Y-799173968D01*
X-299812505Y-803805093D01*
X-268825412Y-784324040D01*
X-246560525Y-788329431D01*
X-221979083Y-784097609D01*
X-194956954Y-767350767D01*
X-191496545Y-771671501D01*
X-209251869Y-788680263D01*
X-202206353Y-811348970D01*
X-201131346Y-787773740D01*
X-188548617Y-800305783D01*
X-216918777Y-799486210D01*
X-220815493Y-821447833D01*
X-234784555Y-793602871D01*
X-251833200Y-773497744D01*
X-257294300Y-779769568D01*
X-253857220Y-783656162D01*
X-233221752Y-753841630D01*
X-244435335Y-728356304D01*
X-231905679Y-710486762D01*
X-204360707Y-717962341D01*
X-180581658Y-740383401D01*
X-199398429Y-752073823D01*
X-212552693Y-770263580D01*
X-210716455Y-791295710D01*
X-182413026Y-770781070D01*
X-174665391Y-751145418D01*
X-158216769Y-748107747D01*
X-171503621Y-773267639D01*
X-178317065Y-752375837D01*
X-208989816Y-764238718D01*
X-192087711Y-768060191D01*
X-178186330Y-798147964D01*
X-168698095Y-771049199D01*
X-183579850Y-746842614D01*
X-195977473Y-731138627D01*
X-198899325Y-726355446D01*
X-209214204Y-699330740D01*
X-235431529Y-678970150D01*
X-204887091Y-662851085D01*
X-194295422Y-648475292D01*
X-182532910Y-633418356D01*
X-174145683Y-601800061D01*
X-177028643Y-590972397D01*
X-187479586Y-584081397D01*
X-161238459Y-586550585D01*
X-141150265Y-594193434D01*
X-139804456Y-616298024D01*
X-168335824Y-610166621D01*
X-160913111Y-609650663D01*
X-187847319Y-590570364D01*
X-159790840Y-589143409D01*
X-137690879Y-597427709D01*
X-116923269Y-574552380D01*
X-114092937Y-603602711D01*
X-145327096Y-613092018D01*
X-121114592Y-602290001D01*
X-104828927Y-582781049D01*
X-78321379Y-576900545D01*
X-89728685Y-567459129D01*
X-81932965Y-585037905D01*
X-69745437Y-612391723D01*
X-39401313Y-610634741D01*
X-60884506Y-579546575D01*
X-65428838Y-604675487D01*
X-46096399Y-597912236D01*
X-44150404Y-583796509D01*
X-16787317Y-555658747D01*
X-15826530Y-576575025D01*
X-7711794Y-549658473D01*
X6096977Y-568225486D01*
X11466749Y-596816000D01*
X41963271Y-570141355D01*
X32064345Y-600728106D01*
X2232175Y-577182007D01*
X-20595602Y-557812795D01*
X3809672Y-543434141D01*
X-21330852Y-514612907D01*
X-29467995Y-541351092D01*
X-48819426Y-518769714D01*
X-67217820Y-536230343D01*
X-81181961Y-553892041D01*
X-76197621Y-562570648D01*
X-48739846Y-582764303D01*
X-57556136Y-594896323D01*
X-61586114Y-583984098D01*
X-89699675Y-599429785D01*
X-104115180Y-578747204D01*
X-115253375Y-590522598D01*
X-119131543Y-603177817D01*
X-143927155Y-600014937D01*
X-142133916Y-595428826D01*
X-126340573Y-584135783D01*
X-142509137Y-604114974D01*
X-144613671Y-606424019D01*
X-146112211Y-583697215D01*
X-164477445Y-566546828D01*
X-140303169Y-572198836D01*
M02*